<?xml version="1.0"?><svg xmlns="http://www.w3.org/2000/svg"  viewBox="0 0 30 30" width="20px" height="20px">    <path d="M 15 2 C 11.77 2 8.8228281 3.1857656 6.5488281 5.1347656 L 9.3867188 7.9726562 C 10.926719 6.7416562 12.875 6 15 6 C 17.125 6 19.073281 6.7416563 20.613281 7.9726562 L 23.451172 5.1347656 C 21.177172 3.1857656 18.23 2 15 2 z M 5.1347656 6.5488281 C 3.1857656 8.8228281 2 11.77 2 15 C 2 22.18 7.82 28 15 28 C 22.18 28 28 22.18 28 15 C 28 11.77 26.814234 8.8228281 24.865234 6.5488281 L 22.027344 9.3867188 C 23.258344 10.926719 24 12.875 24 15 C 24 16.453089 23.648537 17.822107 23.037109 19.037109 L 18.005859 14.005859 C 18.005859 14.005859 15.977 11 16 11 L 16 17 L 20.839844 21.839844 C 19.267397 23.183833 17.230979 24 15 24 C 12.769021 24 10.732603 23.183833 9.1601562 21.839844 L 14 17 L 14 11 C 14.023 11 11.994141 14.005859 11.994141 14.005859 L 6.9628906 19.037109 C 6.3514632 17.822107 6 16.453089 6 15 C 6 12.875 6.7416563 10.926719 7.9726562 9.3867188 L 5.1347656 6.5488281 z"/></svg>